<svg width="18" height="18" viewBox="0 0 18 18" fill="none" xmlns="http://www.w3.org/2000/svg">
<g id="Alarmclock_fill">
<path id="Vector 65" d="M3.75 3L2.25 4.5" stroke="#626262" stroke-width="2" stroke-linecap="round"/>
<path id="Vector 66" d="M14.25 3L15.75 4.5" stroke="#626262" stroke-width="2" stroke-linecap="round"/>
<path id="Subtract" fill-rule="evenodd" clip-rule="evenodd" d="M9 15C12.3137 15 15 12.3137 15 9C15 5.68629 12.3137 3 9 3C5.68629 3 3 5.68629 3 9C3 12.3137 5.68629 15 9 15ZM11.0857 7.59352C11.3444 7.27007 11.292 6.79811 10.9685 6.53935C10.6451 6.28059 10.1731 6.33303 9.91435 6.65648L8.8439 7.99454L7.16603 6.87596C6.82138 6.6462 6.35573 6.73933 6.12596 7.08397C5.8962 7.42862 5.98933 7.89427 6.33397 8.12404L8.39327 9.4969C8.82486 9.78463 9.4048 9.69459 9.72883 9.28954L11.0857 7.59352Z" fill="#626262"/>
</g>
</svg>
