<svg width="24" height="24" viewBox="0 0 24 24" fill="none" xmlns="http://www.w3.org/2000/svg">
<path d="M16.9999 6C18.6568 6 19.9999 7.34315 19.9999 9V10H21.0002C21.1823 10 21.3531 10.0487 21.5002 10.1338C21.7991 10.3067 22.0002 10.6299 22.0002 11V13C22.0002 13.3701 21.7991 13.6933 21.5002 13.8662C21.3531 13.9513 21.1823 14 21.0002 14H19.9999V15C19.9999 16.6569 18.6568 18 16.9999 18H4.99951C3.34266 18 1.99951 16.6569 1.99951 15V9C1.99951 7.34315 3.34266 6 4.99951 6H16.9999ZM16.998 7.5H4.99951C4.21981 7.5 3.57906 8.09489 3.50638 8.85554L3.49951 9V15C3.49951 15.7797 4.0944 16.4204 4.85505 16.4931L4.99951 16.5H16.998C17.7777 16.5 18.4185 15.9051 18.4911 15.1445L18.498 15V9C18.498 8.2203 17.9031 7.57955 17.1425 7.50687L16.998 7.5ZM6.00282 8.99875H6.99984C7.51268 8.99875 7.93535 9.3848 7.99311 9.88213L7.99984 9.99875V13.9988C7.99984 14.5116 7.61379 14.9343 7.11646 14.992L6.99984 14.9988H6.00282C5.48998 14.9988 5.06731 14.6127 5.00955 14.1154L5.00282 13.9988V9.99875C5.00282 9.48592 5.38886 9.06324 5.8862 9.00548L6.00282 8.99875Z" fill="#212121"/>
</svg>
