<svg width="18" height="18" viewBox="0 0 18 18" fill="none" xmlns="http://www.w3.org/2000/svg">
<path d="M8.59725 1.54283C8.80748 1.45577 9.04935 1.50389 9.21023 1.66477L12.9602 5.41477C13.0713 5.52584 13.1309 5.67831 13.1245 5.83526C13.1182 5.99222 13.0465 6.13937 12.9268 6.24111L9.68108 9L12.9268 11.759C13.0465 11.8607 13.1182 12.0078 13.1245 12.1648C13.1309 12.3217 13.0713 12.4741 12.9602 12.5852L9.21023 16.3353C9.04935 16.4962 8.80748 16.5442 8.59725 16.4572C8.38703 16.3701 8.25 16.165 8.25 15.9375V10.2164L5.42681 12.6161C5.19011 12.8173 4.83512 12.7885 4.63392 12.5518C4.43272 12.3152 4.4615 11.9601 4.69821 11.759L7.944 9L4.69821 6.24111C4.4615 6.03991 4.43272 5.68492 4.63392 5.44822C4.83512 5.21151 5.19011 5.18272 5.42681 5.38393L8.25 7.78365V2.06251C8.25 1.83501 8.38703 1.6299 8.59725 1.54283ZM9.375 10.2164V14.5795L11.7334 12.2211L9.375 10.2164ZM9.375 7.78365L11.7334 5.77896L9.375 3.42051V7.78365ZM15 9C15 9.41423 14.6642 9.75 14.25 9.75C13.8358 9.75 13.5 9.41423 13.5 9C13.5 8.58577 13.8358 8.25 14.25 8.25C14.6642 8.25 15 8.58577 15 9ZM3.75 9.75C4.16421 9.75 4.5 9.41423 4.5 9C4.5 8.58577 4.16421 8.25 3.75 8.25C3.33579 8.25 3 8.58577 3 9C3 9.41423 3.33579 9.75 3.75 9.75Z" fill="#212121"/>
</svg>
