<svg width="74" height="74" viewBox="0 0 74 74" fill="none" xmlns="http://www.w3.org/2000/svg">
<path d="M37 6.16699C54.0286 6.16699 67.8333 19.9715 67.8333 37.0003C67.8333 54.029 54.0286 67.8337 37 67.8337C19.9712 67.8337 6.16666 54.029 6.16666 37.0003C6.16666 19.9715 19.9712 6.16699 37 6.16699ZM37 10.792C22.5255 10.792 10.7917 22.5259 10.7917 37.0003C10.7917 51.4747 22.5255 63.2087 37 63.2087C51.4744 63.2087 63.2083 51.4747 63.2083 37.0003C63.2083 22.5259 51.4744 10.792 37 10.792ZM33.1458 41.4382L46.9274 27.6568C47.8305 26.7537 49.2945 26.7537 50.1976 27.6568C51.0187 28.4778 51.0933 29.7625 50.4214 30.6678L50.1976 30.9271L34.7809 46.3438C33.9601 47.1648 32.6753 47.2395 31.77 46.5676L31.5107 46.3438L23.8023 38.6354C22.8992 37.7323 22.8992 36.2683 23.8023 35.3652C24.6233 34.5441 25.908 34.4695 26.8133 35.1414L27.0727 35.3652L33.1458 41.4382Z" fill="#BA6BFF"/>
</svg>
