<svg width="25" height="24" viewBox="0 0 25 24" fill="none" xmlns="http://www.w3.org/2000/svg">
<path d="M14.5 10C14.5 9.44771 14.0523 9 13.5 9H13C9.96243 9 7.5 11.4624 7.5 14.5C7.5 17.5376 9.96243 20 13 20H18C21.0376 20 23.5 17.5376 23.5 14.5C23.5 12.0091 21.8441 9.90488 19.573 9.22823C19.0098 9.06042 18.5 9.52887 18.5 10.1166V10.1683C18.5 10.6659 18.8745 11.0735 19.3345 11.2634C20.6055 11.788 21.5 13.0395 21.5 14.5C21.5 16.433 19.933 18 18 18H13C11.067 18 9.5 16.433 9.5 14.5C9.5 12.567 11.067 11 13 11H13.5C14.0523 11 14.5 10.5523 14.5 10Z" fill="#0F0F0F"/>
<path d="M12 4C15.0376 4 17.5 6.46243 17.5 9.5C17.5 12.5376 15.0376 15 12 15H11.5C10.9477 15 10.5 14.5523 10.5 14C10.5 13.4477 10.9477 13 11.5 13H12C13.933 13 15.5 11.433 15.5 9.5C15.5 7.567 13.933 6 12 6H7C5.067 6 3.5 7.567 3.5 9.5C3.5 10.9605 4.39451 12.212 5.66553 12.7366C6.12548 12.9264 6.5 13.3341 6.5 13.8317V13.8834C6.5 14.4711 5.99024 14.9396 5.42699 14.7718C3.15592 14.0951 1.5 11.9909 1.5 9.5C1.5 6.46243 3.96243 4 7 4H12Z" fill="#0F0F0F"/>
</svg>
