<svg width="18" height="18" viewBox="0 0 18 18" fill="none" xmlns="http://www.w3.org/2000/svg">
<path d="M14.625 9C14.625 5.89339 12.1066 3.375 9 3.375C7.52318 3.375 6.1793 3.94412 5.1757 4.875H6.1875C6.49816 4.875 6.75 5.12684 6.75 5.4375C6.75 5.74816 6.49816 6 6.1875 6H3.9375C3.62684 6 3.375 5.74816 3.375 5.4375V3.1875C3.375 2.87684 3.62684 2.625 3.9375 2.625C4.24816 2.625 4.5 2.87684 4.5 3.1875V3.96876C5.6942 2.89992 7.2712 2.25 9 2.25C12.728 2.25 15.75 5.27208 15.75 9C15.75 12.728 12.728 15.75 9 15.75C5.27208 15.75 2.25 12.728 2.25 9C2.25 8.64878 2.27682 8.30385 2.32853 7.9671C2.37075 7.69215 2.61467 7.5 2.89281 7.5C3.23707 7.5 3.48634 7.82865 3.43592 8.16922C3.39579 8.44035 3.375 8.7177 3.375 9C3.375 12.1066 5.89339 14.625 9 14.625C12.1066 14.625 14.625 12.1066 14.625 9ZM9.375 5.8125C9.375 5.50184 9.12315 5.25 8.8125 5.25C8.50185 5.25 8.25 5.50184 8.25 5.8125V9.1875C8.25 9.49815 8.50185 9.75 8.8125 9.75H10.6875C10.9981 9.75 11.25 9.49815 11.25 9.1875C11.25 8.87685 10.9981 8.625 10.6875 8.625H9.375V5.8125Z" fill="#626262"/>
</svg>
