<svg width="18" height="18" viewBox="0 0 18 18" fill="none" xmlns="http://www.w3.org/2000/svg">
<path d="M4.51263 1.889C4.64568 1.51552 4.99929 1.26611 5.39577 1.26611H10.236C10.8759 1.26611 11.3278 1.89302 11.1254 2.50007L10.0367 5.76611H13.0058C13.8339 5.76611 14.2553 6.76124 13.6791 7.35596L12.9607 8.09741C12.6718 8.04401 12.3739 8.01611 12.0696 8.01611C11.8539 8.01611 11.6415 8.03014 11.4331 8.05729L12.563 6.89111H9.25626C9.07543 6.89111 8.90571 6.8042 8.79996 6.65751C8.69421 6.51083 8.66548 6.32227 8.72263 6.15074L9.97588 2.39111H5.52801L3.08155 9.25849C3.03816 9.38029 3.12816 9.50846 3.25746 9.50891L5.13342 9.51611C5.30382 9.51679 5.46474 9.59464 5.571 9.72784C5.67726 9.86104 5.71741 10.0353 5.68018 10.2015L4.57538 15.1353L7.21828 12.4075C7.20261 12.5666 7.19458 12.7279 7.19458 12.8911C7.19458 13.2489 7.23313 13.5976 7.30626 13.9335L5.38335 15.9181C4.59305 16.7338 3.22938 15.9978 3.47757 14.8895L4.42949 10.6384L3.25315 10.6339C2.34809 10.6305 1.71806 9.73354 2.02179 8.88101L4.51263 1.889ZM9.65248 10.248C9.88858 11.0657 9.39778 11.9157 8.57158 12.1202L8.13343 12.2286C8.09976 12.4443 8.08228 12.6657 8.08228 12.8913C8.08228 13.1274 8.10141 13.3587 8.13823 13.5839L8.54278 13.6813C9.37723 13.8823 9.87321 14.7411 9.63028 15.5642L9.49056 16.0377C9.81996 16.3269 10.1953 16.5618 10.6037 16.7288L10.9737 16.3398C11.5651 15.7179 12.5568 15.718 13.148 16.3401L13.522 16.7337C13.9297 16.5685 14.3047 16.3359 14.6341 16.0491L14.4856 15.5346C14.2495 14.7169 14.7403 13.8669 15.5665 13.6625L16.0043 13.5541C16.038 13.3383 16.0555 13.1169 16.0555 12.8913C16.0555 12.6553 16.0363 12.4239 15.9995 12.1986L15.5953 12.1013C14.7609 11.9004 14.2649 11.0416 14.5078 10.2184L14.6474 9.74531C14.3181 9.45596 13.9427 9.22106 13.5343 9.05396L13.1644 9.44284C12.5731 10.0648 11.5813 10.0646 10.9901 9.44246L10.616 9.04886C10.2084 9.21401 9.83338 9.44659 9.50391 9.73339L9.65248 10.248ZM12.0689 14.0163C11.4684 14.0163 10.9816 13.5126 10.9816 12.8913C10.9816 12.27 11.4684 11.7663 12.0689 11.7663C12.6694 11.7663 13.1561 12.27 13.1561 12.8913C13.1561 13.5126 12.6694 14.0163 12.0689 14.0163Z" fill="#626262"/>
</svg>
