<svg width="24" height="24" viewBox="0 0 24 24" fill="none" xmlns="http://www.w3.org/2000/svg">
<path d="M11.4961 5.62491C11.8062 5.60017 12.0376 5.3287 12.0128 5.01857C11.9881 4.70844 11.7166 4.47707 11.4065 4.50181C7.54076 4.81018 4.50024 8.04418 4.50024 11.9889C4.50024 16.1372 7.86308 19.5 12.0114 19.5C15.9539 19.5 19.1865 16.4629 19.4979 12.6002C19.5229 12.2901 19.2918 12.0185 18.9817 11.9935C18.6715 11.9685 18.3999 12.1996 18.3749 12.5097C18.1102 15.7918 15.362 18.3733 12.0114 18.3733C8.48533 18.3733 5.62691 15.5149 5.62691 11.9889C5.62691 8.6364 8.21128 5.88695 11.4961 5.62491ZM16.2906 6.48629C16.5009 6.25699 16.8572 6.24157 17.0865 6.45185C17.2475 6.59948 17.4021 6.75404 17.5497 6.91507C17.7599 7.14442 17.7444 7.50076 17.5151 7.71098C17.2857 7.92121 16.9293 7.9057 16.7191 7.67635C16.5935 7.53935 16.4621 7.40783 16.3251 7.28222C16.0958 7.07194 16.0804 6.71559 16.2906 6.48629ZM11.448 7.48226C11.7331 7.48226 11.9689 7.69432 12.0062 7.96918L12.0114 8.04559V11.989H14.4525C14.7634 11.989 15.0158 12.2413 15.0158 12.5523C15.0158 12.8373 14.8038 13.0731 14.5289 13.1104L14.4525 13.1156H11.448C11.163 13.1156 10.9271 12.9035 10.8899 12.6287L10.8847 12.5523V8.04559C10.8847 7.73463 11.1371 7.48226 11.448 7.48226ZM13.3491 5.14645C13.4331 4.84689 13.744 4.67215 14.0436 4.75616C14.3193 4.83347 14.5886 4.92612 14.8504 5.0331C15.1385 5.15077 15.2765 5.47964 15.1589 5.76765C15.0412 6.05566 14.7124 6.19375 14.4243 6.07609C14.202 5.98525 13.9734 5.90661 13.7394 5.84098C13.4398 5.75697 13.265 5.44602 13.3491 5.14645ZM18.9658 9.14651C18.848 8.85856 18.519 8.72063 18.2311 8.83843C17.9431 8.95623 17.8052 9.28517 17.923 9.57312C17.9923 9.74251 18.0545 9.91551 18.1093 10.0918C18.1266 10.1476 18.1432 10.2038 18.1591 10.2602C18.2431 10.5598 18.5541 10.7345 18.8536 10.6505C19.1532 10.5664 19.3279 10.2555 19.2438 9.9559C19.2252 9.88937 19.2057 9.82322 19.1852 9.75745C19.1206 9.54979 19.0474 9.346 18.9658 9.14651Z" fill="#626262"/>
</svg>
