<svg width="14" height="16" viewBox="0 0 14 16" fill="none" xmlns="http://www.w3.org/2000/svg">
<g id="Group">
<path id="Vector" d="M5.99992 10.8122C6.16867 10.8122 6.33742 10.756 6.44992 10.5872L13.7624 1.02474C13.9312 0.799735 13.9312 0.405985 13.6499 0.237235C13.4249 0.0684851 13.0312 0.0684852 12.8624 0.349735L9.65617 4.56848L9.09367 1.86848C8.86867 0.855985 7.96867 0.124735 6.95617 0.124735H5.04367C4.03117 0.124735 3.13117 0.799735 2.90617 1.81224L0.262425 13.3435C0.0936747 13.9622 0.262425 14.581 0.656175 15.0872C1.04992 15.5935 1.61242 15.8747 2.23117 15.8747H9.71242C10.3312 15.8747 10.9499 15.5935 11.3437 15.0872C11.7374 14.581 11.8499 13.9622 11.7374 13.3435L10.3312 7.88724C10.2749 7.60599 9.93742 7.38099 9.65617 7.49349C9.37492 7.54974 9.14992 7.88723 9.26242 8.16848L10.1062 11.431H1.83742L3.97492 2.14973C4.08742 1.64349 4.53742 1.30598 4.98742 1.30598H6.89992C7.40617 1.30598 7.85617 1.64349 7.91242 2.14973L8.69992 5.80599L5.54992 9.96848C5.38117 10.1935 5.38117 10.5872 5.66242 10.756C5.77492 10.756 5.88742 10.8122 5.99992 10.8122Z" fill="#626262"/>
<path id="Vector_2" d="M5.4375 3.5H6.5625C6.9 3.5 7.125 3.275 7.125 2.9375C7.125 2.6 6.9 2.375 6.5625 2.375H5.4375C5.1 2.375 4.875 2.6 4.875 2.9375C4.875 3.275 5.1 3.5 5.4375 3.5Z" fill="black"/>
<path id="Vector_3" d="M5.4375 5.1875H6.5625C6.9 5.1875 7.125 4.9625 7.125 4.625C7.125 4.2875 6.9 4.0625 6.5625 4.0625H5.4375C5.1 4.0625 4.875 4.2875 4.875 4.625C4.875 4.9625 5.1 5.1875 5.4375 5.1875Z" fill="black"/>
<path id="Vector_4" d="M5.4375 6.875H6.5625C6.9 6.875 7.125 6.65 7.125 6.3125C7.125 5.975 6.9 5.75 6.5625 5.75H5.4375C5.1 5.75 4.875 5.975 4.875 6.3125C4.875 6.65 5.1 6.875 5.4375 6.875Z" fill="black"/>
</g>
</svg>
