<svg width="18" height="18" viewBox="0 0 18 18" fill="none" xmlns="http://www.w3.org/2000/svg">
<path d="M9.00793 1.6875C9.55843 1.69385 10.1068 1.75745 10.6441 1.87728C10.8786 1.92959 11.054 2.12513 11.0806 2.36397L11.2083 3.50911C11.2661 4.0349 11.71 4.43313 12.2392 4.43369C12.3815 4.43391 12.5222 4.40428 12.6537 4.34612L13.7041 3.88467C13.9226 3.78869 14.1779 3.84102 14.341 4.01521C15.1001 4.82598 15.6655 5.79836 15.9946 6.85919C16.0655 7.08794 15.9838 7.33652 15.7911 7.47863L14.86 8.16495C14.5943 8.3601 14.4375 8.67 14.4375 8.99963C14.4375 9.32917 14.5943 9.63907 14.8606 9.83467L15.7924 10.5212C15.9853 10.6633 16.067 10.9119 15.9961 11.1407C15.6671 12.2014 15.1021 13.1737 14.3434 13.9846C14.1805 14.1587 13.9254 14.2112 13.7069 14.1154L12.6522 13.6534C12.3504 13.5213 12.0039 13.5407 11.7187 13.7055C11.4335 13.8703 11.2438 14.1609 11.2075 14.4883L11.0807 15.6333C11.0545 15.8694 10.8829 16.0637 10.6518 16.1186C9.56548 16.3771 8.43366 16.3771 7.3473 16.1186C7.11621 16.0637 6.94457 15.8694 6.91842 15.6333L6.7918 14.49C6.75461 14.1632 6.56454 13.8735 6.2796 13.7092C5.99466 13.545 5.64868 13.5257 5.34793 13.6571L4.29296 14.1192C4.07445 14.215 3.8193 14.1625 3.65637 13.9882C2.89725 13.1764 2.33217 12.2029 2.00368 11.1411C1.93293 10.9124 2.01468 10.6639 2.20742 10.522L3.13992 9.83498C3.40552 9.63983 3.56238 9.32992 3.56238 9.00037C3.56238 8.67075 3.40552 8.36085 3.13956 8.16547L2.20765 7.47964C2.01463 7.33759 1.93281 7.08883 2.00381 6.85993C2.33287 5.79911 2.89824 4.82673 3.65738 4.01596C3.82047 3.84177 4.07574 3.78944 4.29421 3.88542L5.3445 4.34679C5.6467 4.47942 5.99413 4.45939 6.28061 4.29202C6.56585 4.12657 6.75575 3.83566 6.79241 3.50823L6.91996 2.36397C6.9466 2.12501 7.12218 1.9294 7.35688 1.8772C7.89486 1.75756 8.44378 1.69399 9.00793 1.6875ZM9.00808 2.81243C8.6675 2.81643 8.32798 2.84582 7.99213 2.90026L7.91046 3.63314C7.83411 4.31526 7.4388 4.92077 6.8466 5.26427C6.25076 5.61238 5.5243 5.65427 4.89222 5.37688L4.2185 5.08092C3.78955 5.60155 3.44814 6.18851 3.20767 6.81876L3.80602 7.25909C4.36013 7.6662 4.68738 8.31277 4.68738 9.00037C4.68738 9.6879 4.36013 10.3345 3.80661 10.7411L3.20732 11.1826C3.44757 11.814 3.78904 12.4021 4.21828 12.9237L4.89713 12.6263C5.5257 12.3519 6.24721 12.392 6.84143 12.7346C7.43564 13.0771 7.83201 13.6813 7.90978 14.3644L7.99153 15.1024C8.65873 15.2158 9.34041 15.2158 10.0076 15.1024L10.0894 14.3645C10.165 13.6816 10.5609 13.0753 11.1558 12.7315C11.7507 12.3876 12.4737 12.3472 13.1034 12.6229L13.7817 12.92C14.2105 12.3992 14.5519 11.8121 14.7923 11.1818L14.1938 10.7408C13.6397 10.3337 13.3125 9.68715 13.3125 8.99963C13.3125 8.31203 13.6397 7.66545 14.1931 7.25885L14.7908 6.81832C14.5504 6.18796 14.2089 5.60088 13.7799 5.08017L13.1075 5.37553C12.8335 5.49676 12.5371 5.55915 12.2378 5.55869C11.1355 5.55753 10.2104 4.72766 10.0901 3.63287L10.0084 2.90002C9.6743 2.84565 9.33823 2.81634 9.00808 2.81243ZM8.99855 6.18746C10.5519 6.18746 11.8111 7.44666 11.8111 9C11.8111 10.5533 10.5519 11.8125 8.99855 11.8125C7.44525 11.8125 6.18606 10.5533 6.18606 9C6.18606 7.44666 7.44525 6.18746 8.99855 6.18746ZM8.99855 7.31246C8.0666 7.31246 7.31106 8.06798 7.31106 9C7.31106 9.93195 8.0666 10.6875 8.99855 10.6875C9.9305 10.6875 10.6861 9.93195 10.6861 9C10.6861 8.06798 9.9305 7.31246 8.99855 7.31246Z" fill="#626262"/>
</svg>
