<svg width="24" height="24" viewBox="0 0 24 24" fill="none" xmlns="http://www.w3.org/2000/svg">
<path d="M5.25 7.3125C5.25 6.17342 6.17342 5.25 7.3125 5.25H16.6875C17.8266 5.25 18.75 6.17342 18.75 7.3125V16.6875C18.75 17.8266 17.8266 18.75 16.6875 18.75H7.3125C6.17342 18.75 5.25 17.8266 5.25 16.6875V7.3125ZM7.3125 6.375C6.79473 6.375 6.375 6.79473 6.375 7.3125V16.6875C6.375 17.2053 6.79473 17.625 7.3125 17.625H16.6875C17.2053 17.625 17.625 17.2053 17.625 16.6875V7.3125C17.625 6.79473 17.2053 6.375 16.6875 6.375H7.3125Z" fill="#626262"/>
</svg>
