<svg width="13" height="16" viewBox="0 0 13 16" fill="none" xmlns="http://www.w3.org/2000/svg">
<path d="M3.06781 1.12338C3.20086 0.749893 3.55446 0.500488 3.95094 0.500488H8.79117C9.43107 0.500488 9.88287 1.12739 9.68052 1.73445L8.5919 5.00049H11.5609C12.3891 5.00049 12.8105 5.99561 12.2343 6.59034L3.93852 15.1525C3.14822 15.9682 1.78456 15.2321 2.03274 14.1239L2.98466 9.87279L1.80832 9.86829C0.903257 9.86484 0.273235 8.96791 0.576963 8.11539L3.06781 1.12338ZM4.08319 1.62549L1.63672 8.49286C1.59333 8.61466 1.68334 8.74284 1.81263 8.74329L3.6886 8.75049C3.859 8.75116 4.01992 8.82901 4.12618 8.96221C4.23244 9.09541 4.27259 9.26964 4.23535 9.43591L3.13055 14.3697L11.1182 6.12549H7.81145C7.63062 6.12549 7.46082 6.03857 7.35515 5.89189C7.2494 5.74521 7.22067 5.55664 7.27782 5.38511L8.531 1.62549H4.08319Z" fill="#39393F"/>
</svg>
