<svg width="18" height="18" viewBox="0 0 18 18" fill="none" xmlns="http://www.w3.org/2000/svg">
<path d="M5.94 6C5.65096 5.80377 5.40806 5.54782 5.22737 5.25H12.7726C12.592 5.54782 12.349 5.80377 12.06 6L10.5 7.11C10.1846 7.3185 9.92257 7.59817 9.735 7.92645C9.3423 8.6136 9.3423 9.3864 9.735 10.0736C9.92257 10.4018 10.1846 10.6815 10.5 10.89L12.06 12C12.3849 12.2206 12.6515 12.5166 12.837 12.8627C13.0225 13.2088 13.1213 13.5948 13.125 13.9875V14.4375C13.125 14.4872 13.1053 14.5349 13.0701 14.5701C13.0349 14.6053 12.9872 14.625 12.9375 14.625H5.0625C5.01277 14.625 4.96508 14.6053 4.92991 14.5701C4.89475 14.5349 4.875 14.4872 4.875 14.4375V13.9875C4.87871 13.5948 4.97754 13.2088 5.16301 12.8627C5.34849 12.5166 5.6151 12.2206 5.94 12L7.5 10.89C7.81537 10.6815 8.07743 10.4018 8.265 10.0736C8.6577 9.3864 8.6577 8.6136 8.265 7.92645C8.07743 7.59817 7.81537 7.3185 7.5 7.11L5.94 6ZM5.0625 1.5C3.92342 1.5 3 2.42342 3 3.5625V3.87679C3 5.39161 3.79479 6.79535 5.09374 7.5747L6.45158 8.38942C6.80375 8.6007 6.81809 9.10597 6.47847 9.3369L4.88754 10.4188C3.70678 11.2217 3 12.5569 3 13.9849V14.4375C3 15.5766 3.92342 16.5 5.0625 16.5H12.9375C14.0766 16.5 15 15.5766 15 14.4375V13.9849C15 12.5569 14.2932 11.2217 13.1125 10.4188L11.5215 9.3369C11.1819 9.10597 11.1962 8.6007 11.5484 8.38942L12.9063 7.5747C14.2052 6.79535 15 5.39161 15 3.87679V3.5625C15 2.42342 14.0766 1.5 12.9375 1.5H5.0625ZM4.125 3.5625C4.125 3.04473 4.54473 2.625 5.0625 2.625H12.9375C13.4553 2.625 13.875 3.04473 13.875 3.5625V3.87679C13.875 4.99644 13.2875 6.03399 12.3274 6.61004L10.9696 7.42475C9.91313 8.05868 9.87008 9.57435 10.889 10.2672L12.4798 11.349C13.3526 11.9425 13.875 12.9295 13.875 13.9849V14.4375C13.875 14.9553 13.4553 15.375 12.9375 15.375H5.0625C4.54473 15.375 4.125 14.9553 4.125 14.4375V13.9849C4.125 12.9295 4.6474 11.9425 5.52013 11.349L7.11106 10.2672C8.12992 9.57435 8.08688 8.05868 7.03038 7.42475L5.67254 6.61004C4.71245 6.03399 4.125 4.99644 4.125 3.87679V3.5625Z" fill="#212121"/>
</svg>
